name C:\Users\Nicos\Desktop\Gil_twoSteps\Study2\ExperimentalData\IK_Splined\twoSteps_IK_BSplines_25_meshInts_study2_p02_s_01_lowIK_modROI.mot
datacolumns 38
datarows 11
range 0.43534409 0.48496000
endheader
                time	         pelvis_tilt	         pelvis_list	     pelvis_rotation	           pelvis_tx	           pelvis_ty	           pelvis_tz	       hip_flexion_r	     hip_adduction_r	      hip_rotation_r	        knee_angle_r	       ankle_angle_r	    subtalar_angle_r	         mtp_angle_r	       hip_flexion_l	     hip_adduction_l	      hip_rotation_l	        knee_angle_l	       ankle_angle_l	    subtalar_angle_l	         mtp_angle_l	    lumbar_extension	      lumbar_bending	     lumbar_rotation	          arm_flex_r	           arm_add_r	           arm_rot_r	        elbow_flex_r	           pro_sup_r	        wrist_flex_r	         wrist_dev_r	          arm_flex_l	           arm_add_l	           arm_rot_l	        elbow_flex_l	           pro_sup_l	        wrist_flex_l	         wrist_dev_l	
          0.43534409	        -21.56552067	          3.42017604	        -10.05457125	         -0.87105701	          0.84666622	          0.33698333	         25.08911435	         -2.94931313	          9.81990530	        -54.89910201	         23.85989815	        -12.79635030	         17.89899017	         54.62158301	         -1.58167319	        -14.62625396	       -111.16967452	         -5.25819938	        -18.45075240	          6.74003039	        -24.21815945	         -4.25047492	         -5.18503021	         34.82003233	          0.21260060	          9.63402186	         78.09666907	         71.88030271	         -5.55575839	         11.26860712	        -45.45710609	         -9.31999339	        -17.53834580	         41.63892837	         70.24256658	         -9.64160037	         18.48099873	
          0.44388791	        -21.73623553	          4.46112633	        -10.99399186	         -0.82996365	          0.84703053	          0.33957183	         21.16214012	         -4.08644348	         10.19432909	        -51.06211905	         20.23844755	        -12.15613369	         18.44363872	         59.96003528	         -1.53296678	        -14.91105748	       -112.30479120	         -3.77438399	        -18.75875991	          7.02318432	        -23.24243651	         -6.53453804	         -5.28890797	         41.23821631	         -0.02283911	         12.46727416	         83.51849517	         70.79908817	         -6.29583994	         11.00286017	        -50.77483243	         -8.33397580	        -20.27472934	         39.97028874	         71.19545470	         -8.97537499	         19.56608106	
          0.45008000	        -21.85628455	          5.21656583	        -11.58395313	         -0.79983428	          0.84743374	          0.34133346	         18.31390908	         -4.95906070	         10.37347089	        -48.23866846	         17.33423587	        -11.70414639	         18.70447123	         63.69906465	         -1.48862107	        -15.07031615	       -112.81160193	         -2.81956994	        -18.91678758	          7.22440693	        -22.52968183	         -8.17406354	         -5.36282118	         45.54837389	         -0.28966328	         14.40644058	         87.70280571	         69.95816569	         -6.86139210	         10.78506712	        -54.52712515	         -7.59471846	        -22.26413361	         39.13813849	         71.72765777	         -8.46102681	         20.32160644	
          0.45008000	        -21.85628455	          5.21656583	        -11.58395313	         -0.79983428	          0.84743374	          0.34133346	         18.31390908	         -4.95906070	         10.37347089	        -48.23866846	         17.33423587	        -11.70414639	         18.70447123	         63.69906465	         -1.48862107	        -15.07031615	       -112.81160193	         -2.81956994	        -18.91678758	          7.22440693	        -22.52968183	         -8.17406354	         -5.36282118	         45.54837389	         -0.28966328	         14.40644058	         87.70280571	         69.95816569	         -6.86139210	         10.78506712	        -54.52712515	         -7.59471846	        -22.26413361	         39.13813849	         71.72765777	         -8.46102681	         20.32160644	
          0.45278409	        -21.90553665	          5.54734404	        -11.76312992	         -0.78637705	          0.84772997	          0.34200402	         17.06820547	         -5.38199484	         10.37208487	        -46.96887270	         15.82458794	        -11.51712887	         18.70277649	         65.21967843	         -1.46144549	        -15.09915685	       -112.76023180	         -2.50669826	        -18.92950913	          7.30883475	        -22.21358278	         -8.87637224	         -5.39391493	         47.13588759	         -0.48923088	         15.15466606	         89.75013700	         69.54144938	         -7.13356306	         10.66820543	        -56.07795013	         -7.25060622	        -23.13828154	         39.10038015	         71.82331973	         -8.20921122	         20.62488275	
          0.46132791	        -22.06115317	          6.59246814	        -12.32925542	         -0.74385769	          0.84866593	          0.34412271	         13.13229056	         -6.71829409	         10.36770561	        -42.95683645	         11.05471675	        -10.92622986	         18.69742179	         70.02419724	         -1.37558173	        -15.19028170	       -112.59792317	         -1.51815148	        -18.96970404	          7.57559220	        -21.21483882	        -11.09538103	         -5.49215848	         52.15178283	         -1.11978304	         17.51875314	         96.21886815	         68.22479595	         -7.99351221	         10.29897017	        -60.97792401	         -6.16335199	        -25.90023216	         38.98107920	         72.12557246	         -7.41357677	         21.58311208	
          0.46752000	        -22.15466347	          7.32396165	        -12.51714844	         -0.71224216	          0.84967481	          0.34537894	         10.37851384	         -7.74847630	         10.14364109	        -40.15473069	          7.11849440	        -10.56713957	         18.38429120	         73.08131947	         -1.28305418	        -15.14590669	       -111.78154465	         -1.03917021	        -18.85356854	          7.74841391	        -20.52303301	        -12.61881967	         -5.55447263	         54.87320206	         -1.77140567	         18.89748710	        101.20897309	         67.19047922	         -8.68062017	         10.00948712	        -64.14134259	         -5.36564173	        -27.83097844	         39.66892833	         72.02056475	         -6.77814331	         22.19016619	
          0.46752000	        -22.15466347	          7.32396165	        -12.51714844	         -0.71224216	          0.84967481	          0.34537894	         10.37851384	         -7.74847630	         10.14364109	        -40.15473069	          7.11849440	        -10.56713957	         18.38429120	         73.08131947	         -1.28305418	        -15.14590669	       -111.78154465	         -1.03917021	        -18.85356854	          7.74841391	        -20.52303301	        -12.61881967	         -5.55447263	         54.87320206	         -1.77140567	         18.89748710	        101.20897309	         67.19047922	         -8.68062017	         10.00948712	        -64.14134259	         -5.36564173	        -27.83097844	         39.66892833	         72.02056475	         -6.77814331	         22.19016619	
          0.47022409	        -22.19447478	          7.64202533	        -12.58737610	         -0.69839310	          0.85013296	          0.34591269	          9.18118865	         -8.20163853	         10.03404705	        -38.93666385	          5.37405963	        -10.41400192	         18.23110383	         74.39377313	         -1.24103636	        -15.12065713	       -111.38787879	         -0.84262482	        -18.79512817	          7.82279477	        -20.22262393	        -13.27959874	         -5.58121271	         56.01305900	         -2.06631850	         19.48178888	        103.40420890	         66.73453454	         -8.98407639	          9.88190621	        -65.50218941	         -5.01676385	        -28.67036349	         40.01048320	         71.95747711	         -6.49752258	         22.45061907	
          0.47876791	        -22.30582641	          8.61959534	        -12.70716096	         -0.65429558	          0.85172684	          0.34747122	          5.50006677	         -9.63080523	          9.58897031	        -35.25068079	         -0.24624882	         -9.98353116	         17.61514072	         78.28742142	         -1.08992987	        -14.99289047	       -109.86362873	         -0.29931476	        -18.55155982	          8.04255169	        -19.31303244	        -15.30344671	         -5.65861293	         59.15239186	         -3.06531050	         21.14435265	        110.30388648	         65.28990134	         -9.96808838	          9.49038495	        -69.54832374	         -3.93749322	        -31.24302809	         41.36425463	         71.64393732	         -5.59382981	         23.22697175	
          0.48496000	        -22.36469580	          9.28667382	        -12.63955411	         -0.62182168	          0.85310325	          0.34840735	          2.98635734	        -10.66259235	          9.11697607	        -32.82520886	         -4.48379032	         -9.75228176	         16.96916403	         80.72644101	         -0.95266854	        -14.82771683	       -108.33483184	         -0.02305316	        -18.28592605	          8.17874652	        -18.71366752	        -16.67351393	         -5.70398946	         60.72867296	         -3.89093671	         22.07163206	        115.24938589	         64.23680977	        -10.71937884	          9.22414849	        -72.09722680	         -3.19014360	        -32.98739770	         42.76068224	         71.24397704	         -4.91310382	         23.71919581	
